0
SECTION
2
HEADER
9
$INSUNITS
70
4
9
$ACADVER
1
AC1014
9
$HANDSEED
5
FFFF
0
ENDSEC
0
SECTION
2
TABLES
0
TABLE
2
VPORT
5
8
100
AcDbSymbolTable
0
ENDTAB
0
TABLE
2
LTYPE
5
5
100
AcDbSymbolTable
0
LTYPE
5
14
100
AcDbSymbolTableRecord
100
AcDbLinetypeTableRecord
2
BYBLOCK
70
0
0
LTYPE
5
15
100
AcDbSymbolTableRecord
100
AcDbLinetypeTableRecord
2
BYLAYER
70
0
0
ENDTAB
0
TABLE
2
LAYER
5
2
100
AcDbSymbolTable
70
2
0
LAYER
5
50
100
AcDbSymbolTableRecord
100
AcDbLayerTableRecord
2
0
70
0
6
CONTINUOUS
0
ENDTAB
0
TABLE
2
STYLE
5
3
100
AcDbSymbolTable
70
1
0
STYLE
5
11
100
AcDbSymbolTableRecord
100
AcDbTextStyleTableRecord
2
STANDARD
70
0
0
ENDTAB
0
TABLE
2
VIEW
5
6
100
AcDbSymbolTable
70
0
0
ENDTAB
0
TABLE
2
UCS
5
7
100
AcDbSymbolTable
70
0
0
ENDTAB
0
TABLE
2
APPID
5
9
100
AcDbSymbolTable
70
2
0
APPID
5
12
100
AcDbSymbolTableRecord
100
AcDbRegAppTableRecord
2
ACAD
70
0
0
ENDTAB
0
TABLE
2
DIMSTYLE
5
A
100
AcDbSymbolTable
70
1
0
ENDTAB
0
TABLE
2
BLOCK_RECORD
5
1
100
AcDbSymbolTable
70
1
0
BLOCK_RECORD
5
1F
100
AcDbSymbolTableRecord
100
AcDbBlockTableRecord
2
*MODEL_SPACE
0
BLOCK_RECORD
5
1B
100
AcDbSymbolTableRecord
100
AcDbBlockTableRecord
2
*PAPER_SPACE
0
ENDTAB
0
ENDSEC
0
SECTION
2
BLOCKS
0
BLOCK
5
20
100
AcDbEntity
100
AcDbBlockBegin
2
*MODEL_SPACE
0
ENDBLK
5
21
100
AcDbEntity
100
AcDbBlockEnd
0
BLOCK
5
1C
100
AcDbEntity
100
AcDbBlockBegin
2
*PAPER_SPACE
0
ENDBLK
5
1D
100
AcDbEntity
100
AcDbBlockEnd
0
ENDSEC
0
SECTION
2
ENTITIES
0
LWPOLYLINE
5
100
100
AcDbEntity
8
0
100
AcDbPolyline
90
4
70
1
43
0.0
10
0
20
0
10
51.100000000000001
20
-7.7037197775489434e-33
10
51.100000000000001
20
148.97
10
0
20
148.97
0
LWPOLYLINE
5
101
100
AcDbEntity
8
0
100
AcDbPolyline
90
4
70
1
43
0.0
10
4
20
12.800000000000002
10
21.800000000000004
20
12.800000000000002
10
21.800000000000004
20
4
10
4
20
4
0
LWPOLYLINE
5
102
100
AcDbEntity
8
0
100
AcDbPolyline
90
4
70
1
43
0.0
10
47.100000000000009
20
4
10
29.300000000000001
20
4
10
29.300000000000001
20
12.800000000000002
10
47.100000000000009
20
12.800000000000002
0
LWPOLYLINE
5
103
100
AcDbEntity
8
0
100
AcDbPolyline
90
4
70
1
43
0.0
10
21.800000000000004
20
20.300000000000004
10
4
20
20.300000000000004
10
4
20
29.100000000000001
10
21.800000000000004
20
29.100000000000001
0
LWPOLYLINE
5
104
100
AcDbEntity
8
0
100
AcDbPolyline
90
4
70
1
43
0.0
10
47.100000000000009
20
20.300000000000004
10
29.300000000000001
20
20.300000000000004
10
29.300000000000001
20
29.100000000000001
10
47.100000000000009
20
29.100000000000001
0
LWPOLYLINE
5
105
100
AcDbEntity
8
0
100
AcDbPolyline
90
4
70
1
43
0.0
10
21.800000000000004
20
36.600000000000001
10
4
20
36.600000000000001
10
4
20
45.400000000000006
10
21.800000000000004
20
45.400000000000006
0
LWPOLYLINE
5
106
100
AcDbEntity
8
0
100
AcDbPolyline
90
4
70
1
43
0.0
10
47.100000000000009
20
36.600000000000001
10
29.300000000000001
20
36.600000000000001
10
29.300000000000001
20
45.400000000000006
10
47.100000000000009
20
45.400000000000006
0
LWPOLYLINE
5
107
100
AcDbEntity
8
0
100
AcDbPolyline
90
4
70
1
43
0.0
10
21.800000000000004
20
52.900000000000006
10
4
20
52.900000000000006
10
4
20
61.70000000000001
10
21.800000000000004
20
61.70000000000001
0
LWPOLYLINE
5
108
100
AcDbEntity
8
0
100
AcDbPolyline
90
4
70
1
43
0.0
10
47.100000000000009
20
52.900000000000006
10
29.300000000000001
20
52.900000000000006
10
29.300000000000001
20
61.70000000000001
10
47.100000000000009
20
61.70000000000001
0
LWPOLYLINE
5
109
100
AcDbEntity
8
0
100
AcDbPolyline
90
4
70
1
43
0.0
10
21.800000000000004
20
69.200000000000003
10
4
20
69.200000000000003
10
4
20
78
10
21.800000000000004
20
78
0
LWPOLYLINE
5
110
100
AcDbEntity
8
0
100
AcDbPolyline
90
4
70
1
43
0.0
10
47.100000000000009
20
69.200000000000003
10
29.300000000000001
20
69.200000000000003
10
29.300000000000001
20
78
10
47.100000000000009
20
78
0
LWPOLYLINE
5
111
100
AcDbEntity
8
0
100
AcDbPolyline
90
4
70
1
43
0.0
10
4
20
85.27000000000001
10
28.5
20
85.27000000000001
10
28.5
20
82.52000000000001
10
4
20
82.52000000000001
0
LWPOLYLINE
5
112
100
AcDbEntity
8
0
100
AcDbPolyline
90
4
70
1
43
0.0
10
4
20
95.220000000000027
10
28.5
20
95.220000000000027
10
28.5
20
92.469999999999999
10
4
20
92.469999999999999
0
LWPOLYLINE
5
113
100
AcDbEntity
8
0
100
AcDbPolyline
90
4
70
1
43
0.0
10
4
20
105.17000000000002
10
28.5
20
105.17000000000002
10
28.5
20
102.42000000000002
10
4
20
102.42000000000002
0
LWPOLYLINE
5
114
100
AcDbEntity
8
0
100
AcDbPolyline
90
4
70
1
43
0.0
10
4
20
115.12
10
28.5
20
115.12
10
28.5
20
112.37000000000002
10
4
20
112.37000000000002
0
LWPOLYLINE
5
115
100
AcDbEntity
8
0
100
AcDbPolyline
90
4
70
1
43
0.0
10
4
20
125.07000000000002
10
28.5
20
125.07000000000002
10
28.5
20
122.32000000000001
10
4
20
122.32000000000001
0
LWPOLYLINE
5
116
100
AcDbEntity
8
0
100
AcDbPolyline
90
4
70
1
43
0.0
10
4
20
135.02000000000004
10
28.5
20
135.02000000000004
10
28.5
20
132.27000000000001
10
4
20
132.27000000000001
0
LWPOLYLINE
5
117
100
AcDbEntity
8
0
100
AcDbPolyline
90
4
70
1
43
0.0
10
4
20
144.97000000000003
10
28.5
20
144.97000000000003
10
28.5
20
142.22000000000003
10
4
20
142.22000000000003
0
LWPOLYLINE
5
118
100
AcDbEntity
8
0
100
AcDbPolyline
90
4
70
1
43
0.0
10
33.5
20
94.25
10
34.799999999999997
20
94.25
10
34.799999999999997
20
83
10
33.5
20
83
0
LWPOLYLINE
5
119
100
AcDbEntity
8
0
100
AcDbPolyline
90
4
70
1
43
0.0
10
40.949999999999996
20
94.25
10
40.949999999999996
20
83
10
39.649999999999999
20
83
10
39.649999999999999
20
94.25
0
LWPOLYLINE
5
120
100
AcDbEntity
8
0
100
AcDbPolyline
90
4
70
1
43
0.0
10
47.100000000000001
20
94.25
10
47.100000000000001
20
83
10
45.799999999999997
20
83
10
45.799999999999997
20
94.25
0
LWPOLYLINE
5
121
100
AcDbEntity
8
0
100
AcDbPolyline
90
4
70
1
43
0.0
10
34.799999999999997
20
111.16000000000001
10
34.799999999999997
20
99.910000000000011
10
33.5
20
99.910000000000011
10
33.5
20
111.16000000000001
0
LWPOLYLINE
5
122
100
AcDbEntity
8
0
100
AcDbPolyline
90
4
70
1
43
0.0
10
40.949999999999996
20
111.16000000000001
10
40.949999999999996
20
99.910000000000011
10
39.649999999999999
20
99.910000000000011
10
39.649999999999999
20
111.16000000000001
0
LWPOLYLINE
5
123
100
AcDbEntity
8
0
100
AcDbPolyline
90
4
70
1
43
0.0
10
47.100000000000001
20
111.16000000000001
10
47.100000000000001
20
99.910000000000011
10
45.799999999999997
20
99.910000000000011
10
45.799999999999997
20
111.16000000000001
0
LWPOLYLINE
5
124
100
AcDbEntity
8
0
100
AcDbPolyline
90
4
70
1
43
0.0
10
34.799999999999997
20
128.06999999999999
10
34.799999999999997
20
116.82000000000001
10
33.5
20
116.82000000000001
10
33.5
20
128.06999999999999
0
LWPOLYLINE
5
125
100
AcDbEntity
8
0
100
AcDbPolyline
90
4
70
1
43
0.0
10
40.949999999999996
20
128.06999999999999
10
40.949999999999996
20
116.82000000000001
10
39.649999999999999
20
116.82000000000001
10
39.649999999999999
20
128.06999999999999
0
LWPOLYLINE
5
126
100
AcDbEntity
8
0
100
AcDbPolyline
90
4
70
1
43
0.0
10
47.100000000000001
20
128.06999999999999
10
47.100000000000001
20
116.82000000000001
10
45.799999999999997
20
116.82000000000001
10
45.799999999999997
20
128.06999999999999
0
LWPOLYLINE
5
127
100
AcDbEntity
8
0
100
AcDbPolyline
90
4
70
1
43
0.0
10
34.799999999999997
20
144.98000000000002
10
34.799999999999997
20
133.73000000000002
10
33.5
20
133.73000000000002
10
33.5
20
144.98000000000002
0
LWPOLYLINE
5
128
100
AcDbEntity
8
0
100
AcDbPolyline
90
4
70
1
43
0.0
10
40.949999999999996
20
144.98000000000002
10
40.949999999999996
20
133.73000000000002
10
39.649999999999999
20
133.73000000000002
10
39.649999999999999
20
144.98000000000002
0
LWPOLYLINE
5
129
100
AcDbEntity
8
0
100
AcDbPolyline
90
4
70
1
43
0.0
10
47.100000000000001
20
144.98000000000002
10
47.100000000000001
20
133.73000000000002
10
45.799999999999997
20
133.73000000000002
10
45.799999999999997
20
144.98000000000002
0
ENDSEC
0
SECTION
2
OBJECTS
0
DICTIONARY
5
C
100
AcDbDictionary
3
ACAD_GROUP
350
D
3
ACAD_MLINESTYLE
350
17
0
DICTIONARY
5
D
100
AcDbDictionary
0
DICTIONARY
5
1A
330
C
100
AcDbDictionary
0
DICTIONARY
5
17
100
AcDbDictionary
0
ENDSEC
0
EOF
